<svg width="23" height="23" xmlns="http://www.w3.org/2000/svg" xmlns:xlink="http://www.w3.org/1999/xlink" xmlns:svgjs="http://svgjs.com/svgjs" fill="#fff"><svg xmlns="http://www.w3.org/2000/svg" width="23" height="23" viewBox="1 0.999 22 21.999"><path paint-order="stroke fill markers" fill-rule="evenodd" d="M3.356 22.999c-1.3 0-2.356-.924-2.356-2.063v-.412c0-3.102 2.804-5.615 6.315-5.749l4.684 4.099 4.686-4.099c3.51.134 6.315 2.647 6.315 5.749v.412C23 22.075 21.944 23 20.642 23H3.356zM5.714 7.874c0-.884.265-1.709.688-2.45L3.16 4.743v2.261c.344.18.59.493.59.871 0 .361-.226.663-.545.847l.766 2.677c.083.296-.103.602-.374.602H1.545c-.27 0-.457-.306-.374-.602l.767-2.677c-.32-.184-.546-.486-.546-.847 0-.378.246-.692.59-.87v-2.51l-.315-.065C.78 4.24.78 3.26 1.667 3.07l9.36-1.973a4.86 4.86 0 0 1 1.95 0l9.35 1.977c.894.19.894 1.165 0 1.354l-4.729.996c.428.74.688 1.565.688 2.45 0 3.037-2.814 5.5-6.287 5.5-3.471 0-6.285-2.463-6.285-5.5z"/></svg></svg>