<svg width="26" height="20" xmlns="http://www.w3.org/2000/svg" xmlns:xlink="http://www.w3.org/1999/xlink" xmlns:svgjs="http://svgjs.com/svgjs" viewBox="0.5 0 25 20" fill="#fff"><svg xmlns="http://www.w3.org/2000/svg" width="26" height="20" viewBox="0.999 0.348 24.126 19.301"><path paint-order="stroke fill markers" fill-rule="evenodd" d="M22.712 19.649h-19.3A2.415 2.415 0 0 1 1 17.237v-.603c0-.333.271-.604.604-.604h9.017c-.004.279.133.587.367.825.242.246.55.382.869.382h2.292c.712 0 1.208-.486 1.234-1.207h9.14c.333 0 .603.271.603.604v.603a2.416 2.416 0 0 1-2.413 2.412zm.002-4.825h-.002-19.3V2.158c0-.998.812-1.81 1.81-1.81h15.681c.998 0 1.81.812 1.81 1.81v12.665zM5.82 2.759v9.65H20.3v-9.65H5.82zm9.265 7.63a.6.6 0 0 1-.426-.177l-.427-.426a.605.605 0 0 1 0-.853l1.346-1.346-1.346-1.347a.6.6 0 0 1 0-.852l.427-.428a.6.6 0 0 1 .853 0l2.2 2.2a.607.607 0 0 1 0 .853l-2.2 2.2a.6.6 0 0 1-.427.176zm-4.045 0a.599.599 0 0 1-.426-.177l-2.2-2.199a.605.605 0 0 1 0-.854l2.199-2.199a.601.601 0 0 1 .853 0l.426.426a.606.606 0 0 1 0 .854l-1.345 1.347 1.345 1.346a.6.6 0 0 1 0 .853l-.426.426a.599.599 0 0 1-.426.177z"/></svg></svg>