<svg width="25" height="20" xmlns="http://www.w3.org/2000/svg" xmlns:xlink="http://www.w3.org/1999/xlink" xmlns:svgjs="http://svgjs.com/svgjs" viewBox="0 0.105 25 19.79" fill="#fff"><svg xmlns="http://www.w3.org/2000/svg" width="25" height="20" viewBox="1 0.775 23.303 18.447"><path paint-order="stroke fill markers" fill-rule="evenodd" d="M12.651 19.222c-2.447 0-4.292-1.85-4.292-4.304 0-1.747-1.066-2.46-3.68-2.46-1.163 0-2.118-.424-2.76-1.229C1.318 10.475 1 9.412 1 8.155c0-1.114.806-2.971 2.607-4.613C5.563 1.757 8.122.775 10.812.775c4.027 0 7.225.724 9.504 2.153 2.645 1.657 3.986 4.243 3.986 7.686 0 2.276-1.007 4.378-2.836 5.918-2.089 1.76-5.137 2.69-8.815 2.69zm0-6.148c-.492 0-.955.193-1.302.542a1.844 1.844 0 0 0 1.303 3.147 1.844 1.844 0 0 0 0-3.689zm-7.665-6.15c-.41 0-.796.161-1.085.451A1.537 1.537 0 0 0 4.986 10a1.537 1.537 0 0 0 0-3.074zm14.104-1.23a1.538 1.538 0 0 0 0 3.075c.41 0 .795-.16 1.085-.45.29-.29.45-.677.449-1.087 0-.41-.159-.797-.449-1.087-.29-.29-.675-.45-1.085-.451zm-4.906-2.459a1.538 1.538 0 0 0 0 3.074c.41 0 .795-.16 1.084-.45.29-.291.45-.676.449-1.087 0-.41-.159-.796-.449-1.086a1.52 1.52 0 0 0-1.084-.451zm-4.905 0c-.41 0-.796.16-1.085.451A1.537 1.537 0 0 0 9.279 6.31a1.536 1.536 0 0 0 0-3.074z"/></svg></svg>