<svg width="65" height="66" xmlns="http://www.w3.org/2000/svg" xmlns:xlink="http://www.w3.org/1999/xlink" xmlns:svgjs="http://svgjs.com/svgjs" viewBox="0 0.499 65 65.002" fill="#fff"><svg xmlns="http://www.w3.org/2000/svg" width="65" height="66" viewBox="0 0.998 64.999 65.001"><path paint-order="stroke fill markers" fill-rule="evenodd" d="M1.905 65.999a1.905 1.905 0 0 1 0-3.81h2.03v-21.2c0-1.052.852-1.904 1.904-1.904h7.618c1.052 0 1.904.852 1.904 1.903V62.19h3.81V48.606c0-1.052.85-1.904 1.904-1.904h7.616c1.052 0 1.905.852 1.905 1.904V62.19h3.808V33.373c0-1.053.852-1.905 1.904-1.905h7.618c1.052 0 1.904.852 1.904 1.905V62.19h3.809V21.947c0-1.053.851-1.906 1.903-1.906h7.618c1.052 0 1.904.853 1.904 1.906V62.19h2.032a1.904 1.904 0 1 1 0 3.81l-61.191-.001zM19.17 33.373c0-.238.042-.464.07-.693l-5.637-2.818a5.69 5.69 0 0 1-3.955 1.606 5.72 5.72 0 0 1-5.712-5.713 5.72 5.72 0 0 1 5.712-5.714 5.72 5.72 0 0 1 5.713 5.714c0 .237-.041.462-.07.692l5.637 2.818a5.686 5.686 0 0 1 3.955-1.607c.879 0 1.702.217 2.447.574l7.647-7.647a5.648 5.648 0 0 1-.573-2.448 5.72 5.72 0 0 1 5.713-5.713c1.169 0 2.256.357 3.162.962l6.644-4.982c-.168-.538-.285-1.099-.285-1.692A5.72 5.72 0 0 1 55.35.998a5.72 5.72 0 0 1 5.713 5.714 5.719 5.719 0 0 1-5.713 5.712 5.676 5.676 0 0 1-3.163-.96l-6.643 4.981c.168.539.285 1.1.285 1.692a5.72 5.72 0 0 1-5.713 5.714c-.88 0-1.702-.216-2.447-.574l-7.648 7.647c.357.745.574 1.57.574 2.449a5.72 5.72 0 0 1-5.713 5.712 5.72 5.72 0 0 1-5.713-5.712z"/></svg></svg>