<svg width="65" height="65" xmlns="http://www.w3.org/2000/svg" xmlns:xlink="http://www.w3.org/1999/xlink" xmlns:svgjs="http://svgjs.com/svgjs" fill="#fff"><svg xmlns="http://www.w3.org/2000/svg" width="65" height="65" viewBox="0.005 0.004 64.99 64.99"><path paint-order="stroke fill markers" fill-rule="evenodd" d="M45.946 64.994H12.33v-1.12a3.365 3.365 0 0 1 3.362-3.362h26.892a3.366 3.366 0 0 1 3.362 3.362v1.12zM37.67 58.27H20.607l1.494-4.482h14.073l1.494 4.48v.002zm18.362-6.722H2.246a2.244 2.244 0 0 1-2.241-2.242V8.968a2.244 2.244 0 0 1 2.24-2.24h24.652v4.481H6.728a2.243 2.243 0 0 0-2.241 2.241v29.133a2.244 2.244 0 0 0 2.241 2.241h44.82a2.244 2.244 0 0 0 2.242-2.241V33.62h4.482v15.686a2.244 2.244 0 0 1-2.241 2.242zM44.829 47.07v2.24h2.24v-2.24h-2.24zm-4.489 0v2.24h2.24v-2.24h-2.24zm-4.48 0v2.24h2.24v-2.24h-2.24zm15.688-4.486v-.001H6.728V13.45h20.169v16.808a3.365 3.365 0 0 0 3.361 3.362h21.29v8.963zm-4.479-4.485v2.24h2.24V38.1h-2.24zm-38.1 0v2.24h35.86V38.1H8.97zm2.241-11.203v6.724h13.446V22.414h-4.482v-6.722H8.969v11.204h2.241zm52.664 4.482H30.258c-.617 0-1.12-.503-1.12-1.12v-5.603h35.857v5.603c0 .617-.503 1.12-1.12 1.12zM33.62 26.9v2.24h26.89V26.9H33.62zm-11.205 4.478H13.45v-4.482h6.723v-2.24h2.241v6.722zM17.93 24.65h-6.72v-6.72h6.72v6.719zm47.065-2.236H29.138V1.124c0-.617.503-1.12 1.12-1.12h33.616c.618 0 1.12.503 1.12 1.12v21.289zM40.343 2.674v17.072l17.073-8.537-17.073-8.536z"/></svg></svg>