<svg width="73" height="66" xmlns="http://www.w3.org/2000/svg" xmlns:xlink="http://www.w3.org/1999/xlink" xmlns:svgjs="http://svgjs.com/svgjs" viewBox="0 0.051 73 65.898" fill="#fff"><svg xmlns="http://www.w3.org/2000/svg" width="73" height="66" viewBox="0.988 0.999 72.005 65.001"><path paint-order="stroke fill markers" fill-rule="evenodd" d="M30.482 64.816L4.484 53.588C2.262 52.628.988 51.136.988 49.5c0-1.638 1.274-3.128 3.496-4.089l4.126-1.782 19.9 8.596c2.366 1.022 5.377 1.585 8.48 1.585 3.103 0 6.116-.563 8.48-1.586l19.9-8.595 4.126 1.782c2.222.96 3.497 2.451 3.497 4.09 0 1.638-1.275 3.128-3.497 4.088L43.498 64.816C41.674 65.605 39.332 66 36.99 66c-2.342 0-4.683-.394-6.508-1.183zm0-16L4.484 37.59c-2.222-.961-3.496-2.45-3.496-4.09 0-1.638 1.274-3.127 3.496-4.088l4.127-1.782 19.9 8.596c2.369 1.025 5.38 1.588 8.48 1.588 3.098 0 6.11-.563 8.479-1.588l19.9-8.596 4.126 1.782c2.222.961 3.497 2.45 3.497 4.089 0 1.639-1.275 3.128-3.497 4.089L43.498 48.817C41.674 49.605 39.332 50 36.99 50c-2.342 0-4.683-.395-6.508-1.183zm0-15.999L4.484 21.59C2.262 20.63.988 19.14.988 17.501s1.274-3.13 3.496-4.09L30.482 2.184C32.251 1.42 34.562 1 36.99 1s4.74.42 6.509 1.184l25.997 11.229c2.222.96 3.497 2.45 3.497 4.09 0 1.637-1.275 3.127-3.498 4.087L43.498 32.817c-1.768.765-4.08 1.186-6.508 1.186-2.427 0-4.74-.42-6.508-1.186z"/></svg></svg>