<svg width="73" height="65" xmlns="http://www.w3.org/2000/svg" xmlns:xlink="http://www.w3.org/1999/xlink" xmlns:svgjs="http://svgjs.com/svgjs" viewBox="0.006 0 72.987 65" fill="#fff"><svg xmlns="http://www.w3.org/2000/svg" width="73" height="65" viewBox="0.011 0.009 72.977 64.991"><path paint-order="stroke fill markers" fill-rule="evenodd" d="M72.989 65v-.001H.01V18.383h42.336L57.581.009h15.408v64.99zM46.107 46.33v.002l3.49 6.324h4.89l-5.935-10.758 5.935-10.758h-4.89l-3.49 6.325-3.49-6.325h-4.891l5.935 10.758-5.935 10.758h4.89l3.49-6.324v-.002zM17.628 31.213v13.41c0 4.39 3.549 7.961 7.91 7.961 4.363 0 7.911-3.571 7.911-7.96V31.212h-4.276v13.41c0 2.017-1.63 3.658-3.634 3.658s-3.635-1.64-3.635-3.658v-13.41h-4.276zM40.346 14.08H.01V.01h52L40.347 14.08zM27.28 4.81V9.14h4.28V4.81h-4.28zm-9.19 0V9.14h4.28V4.81h-4.28zm-9.19 0V9.14h4.28V4.81H8.9z"/></svg></svg>