<svg width="71" height="65" xmlns="http://www.w3.org/2000/svg" xmlns:xlink="http://www.w3.org/1999/xlink" xmlns:svgjs="http://svgjs.com/svgjs" viewBox="0.977 0 69.045 65" fill="#fff"><svg xmlns="http://www.w3.org/2000/svg" width="71" height="65" viewBox="0.992 0.013 69.016 64.972"><path paint-order="stroke fill markers" fill-rule="evenodd" d="M15.28 64.985a2.029 2.029 0 0 1-2.022-2.03c0-1.12.907-2.03 2.023-2.03h6.63l1.349-4.061h24.48l1.348 4.06h6.631c1.115 0 2.022.911 2.022 2.03 0 1.12-.907 2.031-2.022 2.031H15.281zM7.059 52.803c-3.344 0-6.066-2.732-6.066-6.091v-2.03h69.016v2.03c0 3.359-2.857 6.091-6.201 6.091H7.058zm62.949-12.181L57.74 40.62v-6.092c0-1.12-.907-2.03-2.022-2.03h-3.124a18.202 18.202 0 0 0-.719-1.74l2.21-2.22a2.04 2.04 0 0 0 0-2.871l-5.718-5.742a2.005 2.005 0 0 0-1.429-.595c-.54 0-1.048.211-1.43.595l-2.211 2.22a18.365 18.365 0 0 0-1.732-.723v-3.137c0-1.12-.907-2.03-2.022-2.03h-8.088c-1.115 0-2.022.91-2.022 2.03v3.137c-.58.208-1.162.45-1.732.724l-2.211-2.221a2.006 2.006 0 0 0-1.43-.596c-.54 0-1.047.212-1.43.596l-5.718 5.742a2.04 2.04 0 0 0 0 2.87l2.21 2.222c-.269.566-.51 1.151-.718 1.739H15.28c-1.116 0-2.023.91-2.023 2.03v6.092H.992V6.103c0-3.358 2.722-6.09 6.066-6.09h56.749a6.22 6.22 0 0 1 4.355 1.785c1.19 1.16 1.846 2.689 1.846 4.305V40.62h-.001zM49.65 14.23c0 3.358 2.723 6.09 6.07 6.09 3.347 0 6.07-2.732 6.07-6.09 0-3.358-2.723-6.09-6.07-6.09-3.347 0-6.07 2.732-6.07 6.09zm-4.307 26.39c.136-.668.267-1.34.267-2.03 0-5.598-4.536-10.152-10.11-10.152-5.575 0-10.11 4.554-10.11 10.152 0 .69.13 1.362.266 2.03h-8.353v-4.06h2.594c.922 0 1.728-.627 1.958-1.523.323-1.26.826-2.477 1.498-3.619a2.04 2.04 0 0 0-.312-2.467l-1.84-1.847 2.86-2.871 1.84 1.847a2.009 2.009 0 0 0 2.46.312 13.848 13.848 0 0 1 3.6-1.503 2.03 2.03 0 0 0 1.517-1.968v-2.605h4.043v2.605c0 .926.625 1.737 1.517 1.968a13.84 13.84 0 0 1 3.602 1.503 2.008 2.008 0 0 0 2.458-.312l1.84-1.847 2.86 2.87-1.84 1.848a2.04 2.04 0 0 0-.31 2.467 13.963 13.963 0 0 1 1.496 3.62 2.026 2.026 0 0 0 1.96 1.521h2.593v4.062h-8.354zm-15.517 0c-.231-.651-.392-1.328-.392-2.03 0-3.357 2.72-6.091 6.066-6.091 3.344 0 6.066 2.734 6.066 6.09 0 .703-.161 1.38-.392 2.032H29.826z"/></svg></svg>