<svg width="23" height="22" xmlns="http://www.w3.org/2000/svg" xmlns:xlink="http://www.w3.org/1999/xlink" xmlns:svgjs="http://svgjs.com/svgjs" viewBox="0.499 0 22.002 22" fill="#fff"><svg xmlns="http://www.w3.org/2000/svg" width="23" height="22" viewBox="0 0 22 21.998"><path paint-order="stroke fill markers" fill-rule="evenodd" d="M11.008 21.998H11c-2.506 0-4.958-.864-6.904-2.434a1.066 1.066 0 0 1-.081-1.58l.5-.5a1.066 1.066 0 0 1 1.414-.087A8.08 8.08 0 0 0 11 19.159c4.5 0 8.16-3.66 8.16-8.16S15.5 2.839 11 2.839a8.134 8.134 0 0 0-5.592 2.214l2.25 2.252a.697.697 0 0 1 .155.772.698.698 0 0 1-.656.44H.71A.71.71 0 0 1 0 7.805V1.356A.706.706 0 0 1 1.21.856l2.191 2.19A10.95 10.95 0 0 1 11.001 0c2.933 0 5.693 1.141 7.77 3.214a10.928 10.928 0 0 1 3.23 7.764 10.926 10.926 0 0 1-3.221 7.782 10.92 10.92 0 0 1-7.772 3.238zm2.126-7.115c-.238 0-.464-.077-.653-.224l-2.9-2.257V6.386c0-.587.477-1.065 1.064-1.065h.71c.586 0 1.064.478 1.064 1.065v4.628l1.805 1.404c.464.362.548 1.032.187 1.495l-.436.56c-.203.26-.51.41-.84.41z"/></svg></svg>