<svg width="79" height="66" xmlns="http://www.w3.org/2000/svg" xmlns:xlink="http://www.w3.org/1999/xlink" xmlns:svgjs="http://svgjs.com/svgjs" viewBox="0 0.499 79 65.003" fill="#fff"><svg xmlns="http://www.w3.org/2000/svg" width="79" height="66" viewBox="0.001 0.999 78.997 65.001"><path paint-order="stroke fill markers" fill-rule="evenodd" d="M76.684 66H2.316C1.039 66 0 65.026 0 63.831V22.665h78.997v41.167c0 1.195-1.038 2.167-2.314 2.167zM53.386 37.831c-.619 0-1.2.226-1.636.635-.438.41-.679.953-.679 1.531s.241 1.122.679 1.533l7.621 7.134-7.621 7.136c-.437.408-.678.951-.679 1.53 0 .578.241 1.123.679 1.533.437.41 1.019.635 1.636.635.618 0 1.199-.226 1.636-.635l9.258-8.666c.437-.409.678-.953.678-1.53 0-.58-.24-1.126-.678-1.534l-9.258-8.667a2.376 2.376 0 0 0-1.636-.635zm-9.252.002c-.882 0-1.677.458-2.076 1.196L32.8 56.363a2.032 2.032 0 0 0-.139 1.614c.19.567.606 1.027 1.174 1.294.328.151.675.228 1.034.228.882 0 1.676-.459 2.072-1.197L46.2 40.968c.269-.503.318-1.076.14-1.613a2.193 2.193 0 0 0-1.175-1.295 2.45 2.45 0 0 0-1.03-.226zm-18.52-.002c-.62 0-1.2.226-1.637.635l-9.258 8.667a2.086 2.086 0 0 0-.677 1.533c0 .578.24 1.121.677 1.53l9.258 8.667c.437.41 1.019.635 1.636.635.618 0 1.2-.226 1.637-.635.437-.41.678-.954.678-1.532 0-.578-.24-1.122-.678-1.53l-7.621-7.137 7.621-7.134c.437-.41.678-.954.678-1.533 0-.578-.24-1.122-.678-1.53a2.38 2.38 0 0 0-1.637-.636zm-13.886-8.667c-1.276 0-2.315.973-2.315 2.168 0 1.194 1.039 2.166 2.315 2.166h55.544c1.276 0 2.314-.972 2.314-2.166 0-1.195-1.038-2.168-2.314-2.168H11.728zm67.27-10.832H.001V3.165C0 1.97 1.039 1 2.316 1h74.368c1.276 0 2.314.971 2.314 2.166v15.167zM67.27 7.5c-1.274 0-2.31.973-2.31 2.17s1.036 2.17 2.31 2.17 2.31-.973 2.31-2.17-1.036-2.17-2.31-2.17zm-9.26 0c-1.274 0-2.31.973-2.31 2.17s1.036 2.17 2.31 2.17 2.31-.973 2.31-2.17-1.036-2.17-2.31-2.17zm-9.25 0c-1.274 0-2.31.973-2.31 2.17s1.036 2.17 2.31 2.17 2.31-.973 2.31-2.17-1.036-2.17-2.31-2.17zm-37.032-.001c-1.276 0-2.315.972-2.315 2.167 0 1.195 1.039 2.166 2.315 2.166H34.87c1.276 0 2.314-.971 2.314-2.166 0-1.195-1.038-2.167-2.314-2.167H11.728z"/></svg></svg>