<svg width="20" height="16" xmlns="http://www.w3.org/2000/svg" xmlns:xlink="http://www.w3.org/1999/xlink" xmlns:svgjs="http://svgjs.com/svgjs" viewBox="0 0.5 20 15" fill="#fff"><svg xmlns="http://www.w3.org/2000/svg" width="20" height="16" viewBox="1 0.962 18.889 14.166"><path paint-order="stroke fill markers" fill-rule="evenodd" d="M19.298 15.128H2.18c-.65 0-1.18-.53-1.18-1.181V1.552a.59.59 0 0 1 .59-.59h1.18a.59.59 0 0 1 .59.59v11.215h15.938a.59.59 0 0 1 .59.59v1.18a.59.59 0 0 1-.59.59zm-1.063-4.722H16.82c-.234 0-.473-.24-.473-.472v-8.5c0-.235.239-.472.473-.472h1.416c.234 0 .473.237.473.472v8.5c0 .233-.239.472-.473.472zm-3.541 0h-1.417c-.234 0-.472-.24-.472-.472V4.976c0-.238.234-.471.472-.471h1.417c.238 0 .472.233.472.47v4.959c0 .233-.238.472-.472.472zm-3.542 0H9.736c-.234 0-.473-.24-.473-.472v-7.32c0-.238.234-.472.473-.472h1.416c.238 0 .472.234.472.473v7.319c0 .233-.238.472-.472.472zm-3.542 0H6.194c-.234 0-.472-.24-.472-.472V7.337c0-.234.238-.472.472-.472H7.61c.239 0 .473.233.473.472v2.597c0 .233-.239.472-.473.472z"/></svg></svg>